<svg width="24" height="18" viewBox="0 0 24 18" fill="none" xmlns="http://www.w3.org/2000/svg">
    <path fill-rule="evenodd" clip-rule="evenodd" d="M22.2073 2.82025C22.1063 2.79184 22.0052 2.76344 21.9042 2.74451L19.5304 2.32793C18.4597 2.13858 17.3991 1.80721 16.4192 1.35276L14.4596 0.434396C14.3586 0.387058 14.2676 0.349187 14.1666 0.320784C13.3989 0.0840925 12.5908 0.25451 12.0151 0.718426C12.3282 0.869909 12.5807 1.11607 12.7423 1.41903C13.0454 1.20128 13.4494 1.12554 13.8333 1.24862C13.8442 1.25272 13.8556 1.25682 13.8673 1.26102L13.8674 1.26104C13.9096 1.27621 13.9554 1.29265 13.9949 1.31489L15.9546 2.23325C17.0253 2.73504 18.1769 3.09481 19.3385 3.29363L21.7123 3.71021L21.7341 3.71421C21.7796 3.72251 21.8305 3.73179 21.8739 3.74808C22.5002 3.93743 22.8336 4.57177 22.6214 5.15876L20.8133 10.2524C19.9446 12.714 18.0051 14.74 15.4899 15.8099L13.5201 16.6525C13.2979 16.7472 13.0555 16.7567 12.8333 16.6904C12.6009 16.6146 12.409 16.4726 12.2979 16.2643L12.2171 16.1223L12.0353 16.3969C11.8938 16.6146 11.6918 16.7756 11.4696 16.8892C11.712 17.23 12.0757 17.4857 12.4999 17.6182C12.9747 17.7697 13.4999 17.7413 13.9545 17.5425L15.9243 16.6998C18.7021 15.5164 20.8537 13.2725 21.8133 10.5553L23.6215 5.46173C24.0053 4.37294 23.379 3.18002 22.2073 2.82025ZM7.44986 1.75017L9.66205 0.860213C10.6116 0.472039 11.6924 0.973825 11.9752 1.91112L13.4904 7.08994C14.2581 9.73141 13.8238 12.5528 12.2884 14.8724L11.157 16.586C10.753 17.2109 9.89438 17.4192 9.20749 17.0783L7.17712 16.0747C4.62149 14.7966 2.71234 12.5906 1.94464 9.97757L0.459752 4.88397C0.187017 3.9372 0.894109 2.98097 1.93454 2.85789L4.14673 2.5928C5.28818 2.45078 6.39932 2.17622 7.44986 1.75017ZM5.64173 7.22248C4.90433 6.82484 4.16693 7.01419 3.66187 7.44024C2.80326 8.25446 3.60126 9.37164 4.6619 9.2391C4.98285 9.23424 5.26135 9.08269 5.53547 8.93353L5.53548 8.93352C5.79626 8.79162 6.05308 8.65186 6.33872 8.64263C6.55084 8.59529 6.68216 8.38701 6.62155 8.18818C6.54347 7.66776 6.15242 7.47559 5.80681 7.30575C5.75003 7.27784 5.69447 7.25054 5.64173 7.22248ZM5.56091 12.6285H5.55081C7.91452 14.4652 11.3187 13.9351 12.0258 10.9717C10.1671 12.0889 7.86401 13.0546 5.56091 12.6285ZM10.0351 7.79201C10.3524 7.78846 10.675 7.78485 10.955 7.63906C11.9348 7.23195 12.0157 5.88754 10.8237 5.60351C10.1671 5.47097 9.42972 5.66032 9.00546 6.36093C8.97577 6.40995 8.94331 6.45973 8.91013 6.5106C8.70624 6.82323 8.47513 7.17759 8.69232 7.658C8.75293 7.85682 8.97516 7.9799 9.18729 7.92309C9.43802 7.79868 9.73421 7.79537 10.0351 7.79201ZM17.8319 7.54138C17.4758 7.69575 17.0695 7.87187 16.9648 8.38716C16.9507 8.42683 16.9442 8.46687 16.9445 8.506C16.9433 8.6603 17.0539 8.80687 17.2173 8.86049C17.5023 8.88812 17.7515 9.03902 18.0044 9.19214C18.2713 9.35375 18.5422 9.51785 18.8638 9.54216C19.6798 9.68054 20.3762 9.0737 20.2815 8.3984C20.2557 8.19295 20.1566 7.98085 19.9649 7.78123C19.48 7.33625 18.7628 7.10903 17.9951 7.4688C17.9429 7.49328 17.888 7.51706 17.8319 7.54138ZM14.7814 6.60503C14.967 6.92408 15.1756 7.28286 14.9338 7.75239C14.8833 7.88493 14.7621 7.97961 14.6206 8.00801C14.56 7.63877 14.4691 7.26954 14.3681 6.90977L14.0449 5.78312C14.2974 5.92513 14.5297 6.13342 14.6914 6.44585C14.7192 6.49797 14.7499 6.55089 14.7814 6.60495L14.7814 6.60503ZM14.4299 11.871C15.7027 12.1551 16.5815 12.9409 17.026 13.7551H17.0058C16.2482 13.045 15.2886 12.619 14.2784 12.3728C14.339 12.2119 14.3895 12.0414 14.4299 11.871Z" fill="#E50012"/>
</svg>
